<svg width="368" height="389" viewBox="0 0 368 389" fill="none" xmlns="http://www.w3.org/2000/svg">
<path d="M174.655 15.2871V9.50297C174.655 4.25416 178.839 0 184 0C189.162 0 193.345 4.25416 193.345 9.50297V15.2871C193.345 20.5359 189.162 24.7901 184 24.7901C178.839 24.7901 174.655 20.5349 174.655 15.2871ZM84.2804 44.9997C86.0113 48.0502 89.1523 49.7555 92.3837 49.7555C93.9682 49.7555 95.5746 49.3447 97.0449 48.4821C101.516 45.8592 103.05 40.0476 100.47 35.5021L97.6285 30.4929C95.0481 25.9463 89.332 24.3878 84.8639 27.0096C80.3927 29.6324 78.8601 35.444 81.4384 39.9896L84.2804 44.9997ZM270.951 48.4821C272.423 49.3458 274.029 49.7565 275.615 49.7565C278.844 49.7565 281.986 48.0513 283.717 45.0029L286.561 39.9938C289.141 35.4482 287.61 29.6366 283.14 27.0127C278.671 24.3899 272.955 25.9473 270.374 30.4919L267.53 35.501C264.95 40.0455 266.481 45.8571 270.951 48.4821ZM342.706 117.963C344.292 117.963 345.899 117.552 347.371 116.687L352.297 113.795C356.767 111.17 358.297 105.357 355.716 100.813C353.135 96.2683 347.42 94.7109 342.95 97.3368L338.024 100.229C333.555 102.854 332.025 108.665 334.605 113.211C336.336 116.258 339.476 117.963 342.706 117.963ZM366.999 286.498C354.863 310.954 320.953 327.386 282.615 327.386C256.334 327.386 231.716 319.678 214.98 306.48C205.392 313.162 195.271 317.464 185.242 318.778C184.785 318.838 184.327 318.861 183.885 318.856C183.511 318.853 183.135 318.828 182.759 318.778C172.73 317.463 162.608 313.161 153.021 306.48C136.285 319.679 111.668 327.386 85.3852 327.386C47.0479 327.386 13.1372 310.954 1.00189 286.498C-0.333443 283.806 -0.334481 280.629 1.00189 277.937C9.95566 259.887 30.4311 246.201 56.3412 240.269C42.8966 220.851 37.9872 197.907 44.0761 178.279C44.8217 175.877 46.4747 173.874 48.6709 172.71C64.0261 164.576 83.5005 163.986 102.458 170.742C105.272 161.262 109.7 153.013 115.701 146.582C117.754 144.383 120.718 143.312 123.675 143.7C128.577 144.343 133.5 145.7 138.374 147.698C148.261 126.449 162.835 110.602 180.1 102.546C182.574 101.39 185.421 101.39 187.895 102.546C205.154 110.598 219.723 126.434 229.613 147.67C234.487 145.688 239.415 144.345 244.326 143.7C247.285 143.312 250.246 144.383 252.299 146.582C258.301 153.013 262.728 161.261 265.543 170.74C284.501 163.985 303.973 164.577 319.327 172.709C321.524 173.873 323.177 175.876 323.922 178.277C330.013 197.906 325.104 220.849 311.658 240.267C337.569 246.199 358.045 259.885 366.999 277.935C368.334 280.629 368.334 283.806 366.999 286.498ZM253.845 259.541C263.993 256.977 274.075 251.697 282.955 244.121C301.093 228.646 310.593 206.114 307.075 187.904C296.097 183.569 282.406 184.242 268.913 189.747C270.209 207.49 267.063 227.56 259.29 247.314C257.638 251.513 255.815 255.596 253.845 259.541ZM154.761 156.957C165.527 164.751 175.569 175.538 183.98 188.442C192.435 175.4 202.466 164.63 213.206 156.881C206.008 141.067 195.706 128.699 183.999 121.864C172.274 128.71 161.958 141.108 154.761 156.957ZM85.0425 244.12C93.9215 251.697 104.006 256.979 114.156 259.542C112.185 255.595 110.365 251.514 108.711 247.312C100.939 227.56 97.7925 207.489 99.0874 189.747C85.5949 184.239 71.9031 183.567 60.9235 187.902C57.4056 206.113 66.9055 228.645 85.0425 244.12ZM138.257 293.878C134.233 289.762 130.389 285.216 126.786 280.305C108.266 279.983 88.9467 272.264 73.0277 258.679C72.3579 258.108 71.6996 257.532 71.0496 256.946C48.2877 259.813 29.211 269.353 20.2354 282.215C31.1475 297.822 56.9466 308.381 85.3831 308.381C105.572 308.381 124.881 302.967 138.257 293.878ZM180.368 222.228C171.055 198.559 155.484 179.04 139.116 169.189C138.659 168.969 138.227 168.715 137.821 168.432C133.948 166.226 130.041 164.569 126.166 163.53C122.292 169.163 119.698 176.37 118.407 184.579C118.374 185.08 118.301 185.58 118.188 186.077C116.031 201.932 118.604 221.299 126.062 240.253C133.589 259.38 145.201 275.797 158.019 286.593C158.318 286.812 158.607 287.052 158.884 287.312C165.83 293.001 173.108 297.033 180.264 298.952C191.751 282.253 191.98 251.739 180.368 222.228ZM241.936 240.251C249.392 221.305 251.965 201.943 249.813 186.091C249.696 185.583 249.621 185.069 249.588 184.557C248.297 176.356 245.704 169.156 241.832 163.527C238.015 164.547 234.16 166.166 230.333 168.32C229.827 168.69 229.277 169.014 228.688 169.281C215.975 176.964 203.707 190.492 194.471 207.528C195.615 210.026 196.699 212.574 197.72 215.168C208.318 242.1 210.315 269.623 204.18 291.032C205.847 289.881 207.503 288.63 209.14 287.289C209.4 287.047 209.669 286.823 209.949 286.617C222.779 275.821 234.404 259.393 241.936 240.251ZM347.763 282.215C338.787 269.353 319.71 259.814 296.947 256.946C296.298 257.531 295.637 258.109 294.969 258.679C279.05 272.262 259.731 279.981 241.214 280.304C237.611 285.216 233.767 289.76 229.742 293.878C243.119 302.965 262.43 308.38 282.615 308.38C311.051 308.381 336.851 297.822 347.763 282.215ZM274.594 352.501C270.702 349.054 264.799 349.469 261.409 353.425C255.516 360.305 227.603 369.994 184 369.994C140.396 369.994 112.483 360.305 106.591 353.425C103.2 349.469 97.2972 349.054 93.4055 352.501C89.5137 355.949 89.1067 361.951 92.4969 365.909C107.097 382.953 150.914 389 184.001 389C217.088 389 260.904 382.952 275.505 365.909C278.893 361.95 278.486 355.949 274.594 352.501ZM61.1488 151.428C66.1132 152.85 71.278 149.909 72.6777 144.858C86.6478 94.4374 132.425 59.2225 184 59.2225C235.575 59.2225 281.353 94.4374 295.323 144.858C296.484 149.049 300.233 151.787 304.313 151.787C305.152 151.787 306.005 151.671 306.852 151.428C311.82 150.004 314.712 144.756 313.312 139.704C297.083 81.1269 243.907 40.2166 184 40.2166C124.092 40.2166 70.9167 81.1279 54.6882 139.704C53.2885 144.756 56.1803 150.004 61.1488 151.428ZM184 357.062C192.029 357.062 218.97 356.19 228.559 344.99C231.947 341.031 231.539 335.028 227.647 331.582C223.775 328.154 217.911 328.547 214.515 332.449C212.384 334.418 201.322 338.056 184 338.056C166.674 338.056 155.611 334.417 153.482 332.447C150.084 328.547 144.223 328.154 140.351 331.583C136.458 335.03 136.051 341.033 139.441 344.991C149.032 356.191 175.973 357.062 184 357.062ZM15.7019 113.793L20.6248 116.686C22.0972 117.551 23.7046 117.963 25.2922 117.963C28.5205 117.963 31.6605 116.259 33.3925 113.212C35.9749 108.668 34.4454 102.855 29.9763 100.23L25.0534 97.3368C20.5874 94.713 14.8681 96.2651 12.2868 100.811C9.70437 105.354 11.2339 111.167 15.7019 113.793Z" fill="white"/>
</svg>
